<svg width="80" height="88" viewBox="0 0 80 88" fill="none" xmlns="http://www.w3.org/2000/svg">
<g filter="url(#filter0_d_249_189)">
<path d="M16 80C12.6667 80 9.83333 78.8333 7.5 76.5C5.16667 74.1667 4 71.3333 4 68V56H16V0L22 6L28 0L34 6L40 0L46 6L52 0L58 6L64 0L70 6L76 0V68C76 71.3333 74.8333 74.1667 72.5 76.5C70.1667 78.8333 67.3333 80 64 80H16ZM64 72C65.1333 72 66.0833 71.6167 66.85 70.85C67.6167 70.0833 68 69.1333 68 68V12H24V56H60V68C60 69.1333 60.3833 70.0833 61.15 70.85C61.9167 71.6167 62.8667 72 64 72ZM28 28V20H52V28H28ZM28 40V32H52V40H28ZM60 28C58.8667 28 57.9167 27.6167 57.15 26.85C56.3833 26.0833 56 25.1333 56 24C56 22.8667 56.3833 21.9167 57.15 21.15C57.9167 20.3833 58.8667 20 60 20C61.1333 20 62.0833 20.3833 62.85 21.15C63.6167 21.9167 64 22.8667 64 24C64 25.1333 63.6167 26.0833 62.85 26.85C62.0833 27.6167 61.1333 28 60 28ZM60 40C58.8667 40 57.9167 39.6167 57.15 38.85C56.3833 38.0833 56 37.1333 56 36C56 34.8667 56.3833 33.9167 57.15 33.15C57.9167 32.3833 58.8667 32 60 32C61.1333 32 62.0833 32.3833 62.85 33.15C63.6167 33.9167 64 34.8667 64 36C64 37.1333 63.6167 38.0833 62.85 38.85C62.0833 39.6167 61.1333 40 60 40ZM16 72H52V64H12V68C12 69.1333 12.3833 70.0833 13.15 70.85C13.9167 71.6167 14.8667 72 16 72ZM12 72C12 72 12 71.6167 12 70.85C12 70.0833 12 69.1333 12 68V64V72Z" fill="white"/>
</g>
<defs>
<filter id="filter0_d_249_189" x="0" y="0" width="80" height="88" filterUnits="userSpaceOnUse" color-interpolation-filters="sRGB">
<feFlood flood-opacity="0" result="BackgroundImageFix"/>
<feColorMatrix in="SourceAlpha" type="matrix" values="0 0 0 0 0 0 0 0 0 0 0 0 0 0 0 0 0 0 127 0" result="hardAlpha"/>
<feOffset dy="4"/>
<feGaussianBlur stdDeviation="2"/>
<feComposite in2="hardAlpha" operator="out"/>
<feColorMatrix type="matrix" values="0 0 0 0 0 0 0 0 0 0 0 0 0 0 0 0 0 0 0.25 0"/>
<feBlend mode="normal" in2="BackgroundImageFix" result="effect1_dropShadow_249_189"/>
<feBlend mode="normal" in="SourceGraphic" in2="effect1_dropShadow_249_189" result="shape"/>
</filter>
</defs>
</svg>
