<svg width="21" height="21" viewBox="0 0 21 21" fill="none" xmlns="http://www.w3.org/2000/svg">
<path d="M3.6 7.99569L5.55 8.82069C5.78333 8.35402 6.025 7.90402 6.275 7.47069C6.525 7.03735 6.8 6.60402 7.1 6.17069L5.7 5.89569V5.89569V5.89569L3.6 7.99569V7.99569M7.15 10.0707L10 12.8957C10.7 12.629 11.45 12.2207 12.25 11.6707C13.05 11.1207 13.8 10.4957 14.5 9.79569C15.6667 8.62902 16.5792 7.33319 17.2375 5.90819C17.8958 4.48319 18.1833 3.17069 18.1 1.97069C16.9 1.88735 15.5833 2.17485 14.15 2.83319C12.7167 3.49152 11.4167 4.40402 10.25 5.57069C9.55 6.27069 8.925 7.02069 8.375 7.82069C7.825 8.62069 7.41667 9.37069 7.15 10.0707V10.0707M11.6 8.44569C11.2167 8.06235 11.025 7.59152 11.025 7.03319C11.025 6.47485 11.2167 6.00402 11.6 5.62069C11.9833 5.23735 12.4583 5.04569 13.025 5.04569C13.5917 5.04569 14.0667 5.23735 14.45 5.62069C14.8333 6.00402 15.025 6.47485 15.025 7.03319C15.025 7.59152 14.8333 8.06235 14.45 8.44569C14.0667 8.82902 13.5917 9.02069 13.025 9.02069C12.4583 9.02069 11.9833 8.82902 11.6 8.44569V8.44569M12.075 16.4707L14.175 14.3707V14.3707V14.3707L13.9 12.9707C13.4667 13.2707 13.0333 13.5415 12.6 13.7832C12.1667 14.0249 11.7167 14.2624 11.25 14.4957L12.075 16.4707V16.4707M19.9 0.145687C20.2167 2.16235 20.0208 4.12485 19.3125 6.03319C18.6042 7.94152 17.3833 9.76235 15.65 11.4957V11.4957V11.4957L16.15 13.9707C16.2167 14.304 16.2 14.629 16.1 14.9457C16 15.2624 15.8333 15.5374 15.6 15.7707L11.4 19.9707L9.3 15.0457L5.025 10.7707L0.1 8.67069L4.275 4.47069C4.50833 4.23735 4.7875 4.07069 5.1125 3.97069C5.4375 3.87069 5.76667 3.85402 6.1 3.92069L8.575 4.42069V4.42069V4.42069C10.3083 2.68735 12.125 1.46235 14.025 0.745687C15.925 0.02902 17.8833 -0.17098 19.9 0.145687V0.145687M1.875 13.9457C2.45833 13.3624 3.17083 13.0665 4.0125 13.0582C4.85417 13.0499 5.56667 13.3374 6.15 13.9207C6.73333 14.504 7.02083 15.2165 7.0125 16.0582C7.00417 16.8999 6.70833 17.6124 6.125 18.1957C5.70833 18.6124 5.0125 18.9707 4.0375 19.2707C3.0625 19.5707 1.71667 19.8374 0 20.0707C0.233333 18.354 0.5 17.0082 0.8 16.0332C1.1 15.0582 1.45833 14.3624 1.875 13.9457V13.9457M3.3 15.3457C3.13333 15.5124 2.96667 15.8165 2.8 16.2582C2.63333 16.6999 2.51667 17.1457 2.45 17.5957C2.9 17.529 3.34583 17.4165 3.7875 17.2582C4.22917 17.0999 4.53333 16.9374 4.7 16.7707C4.9 16.5707 5.00833 16.329 5.025 16.0457C5.04167 15.7624 4.95 15.5207 4.75 15.3207C4.55 15.1207 4.30833 15.0249 4.025 15.0332C3.74167 15.0415 3.5 15.1457 3.3 15.3457V15.3457" fill="#00658D"/>
</svg>
