<svg width="20" height="20" viewBox="0 0 20 20" fill="none" xmlns="http://www.w3.org/2000/svg">
<path fill-rule="evenodd" clip-rule="evenodd" d="M2 20C1.45 20 0.979166 19.8042 0.5875 19.4125C0.195833 19.0208 0 18.55 0 18V7C0 6.45 0.195833 5.97917 0.5875 5.5875C0.979166 5.19583 1.45 5 2 5H7V2C7 1.45 7.19583 0.979167 7.5875 0.5875C7.97917 0.195833 8.45 0 9 0H11C11.55 0 12.0208 0.195833 12.4125 0.5875C12.8042 0.979167 13 1.45 13 2V5H18C18.55 5 19.0208 5.19583 19.4125 5.5875C19.8042 5.97917 20 6.45 20 7V18C20 18.55 19.8042 19.0208 19.4125 19.4125C19.0208 19.8042 18.55 20 18 20H2ZM18 18H2V7H7C7 7.55 7.19583 8.02083 7.5875 8.4125C7.97917 8.80417 8.45 9 9 9H11C11.55 9 12.0208 8.80417 12.4125 8.4125C12.8042 8.02083 13 7.55 13 7H18V18ZM11 7H9V2H11V7Z" fill="#0072C3"/>
<path fill-rule="evenodd" clip-rule="evenodd" d="M2 18H18V7H13C13 7.55 12.8042 8.02083 12.4125 8.4125C12.0208 8.80417 11.55 9 11 9H9C8.45 9 7.97917 8.80417 7.5875 8.4125C7.19583 8.02083 7 7.55 7 7H2V18ZM10 16H4V15.55C4 15.2667 4.07917 15.0042 4.2375 14.7625C4.39583 14.5208 4.61667 14.3333 4.9 14.2C5.23333 14.05 5.57083 13.9375 5.9125 13.8625C6.25417 13.7875 6.61667 13.75 7 13.75C7.38333 13.75 7.74583 13.7875 8.0875 13.8625C8.42917 13.9375 8.76667 14.05 9.1 14.2C9.38333 14.3333 9.60417 14.5208 9.7625 14.7625C9.92083 15.0042 10 15.2667 10 15.55V16ZM16 14.5H12V13H16V14.5ZM8.0625 12.5625C7.77083 12.8542 7.41667 13 7 13C6.58333 13 6.22917 12.8542 5.9375 12.5625C5.64583 12.2708 5.5 11.9167 5.5 11.5C5.5 11.0833 5.64583 10.7292 5.9375 10.4375C6.22917 10.1458 6.58333 10 7 10C7.41667 10 7.77083 10.1458 8.0625 10.4375C8.35417 10.7292 8.5 11.0833 8.5 11.5C8.5 11.9167 8.35417 12.2708 8.0625 12.5625ZM16 11.5H12V10H16V11.5Z" fill="#0072C3"/>
</svg>
