<svg width="22" height="12" viewBox="0 0 22 12" fill="none" xmlns="http://www.w3.org/2000/svg">
<path fill-rule="evenodd" clip-rule="evenodd" d="M6 10H16C17.1 10 18.0417 9.60833 18.825 8.825C19.6083 8.04167 20 7.1 20 6C20 4.9 19.6083 3.95833 18.825 3.175C18.0417 2.39167 17.1 2 16 2H6C4.9 2 3.95833 2.39167 3.175 3.175C2.39167 3.95833 2 4.9 2 6C2 7.1 2.39167 8.04167 3.175 8.825C3.95833 9.60833 4.9 10 6 10ZM18.125 8.125C17.5417 8.70833 16.8333 9 16 9C15.1667 9 14.4583 8.70833 13.875 8.125C13.2917 7.54167 13 6.83333 13 6C13 5.16667 13.2917 4.45833 13.875 3.875C14.4583 3.29167 15.1667 3 16 3C16.8333 3 17.5417 3.29167 18.125 3.875C18.7083 4.45833 19 5.16667 19 6C19 6.83333 18.7083 7.54167 18.125 8.125Z" fill="#006E20"/>
<path fill-rule="evenodd" clip-rule="evenodd" d="M6 12C4.33333 12 2.91667 11.4167 1.75 10.25C0.583333 9.08333 0 7.66667 0 6C0 4.33333 0.583333 2.91667 1.75 1.75C2.91667 0.583333 4.33333 0 6 0H16C17.6667 0 19.0833 0.583333 20.25 1.75C21.4167 2.91667 22 4.33333 22 6C22 7.66667 21.4167 9.08333 20.25 10.25C19.0833 11.4167 17.6667 12 16 12H6ZM16 10H6C4.9 10 3.95833 9.60833 3.175 8.825C2.39167 8.04167 2 7.1 2 6C2 4.9 2.39167 3.95833 3.175 3.175C3.95833 2.39167 4.9 2 6 2H16C17.1 2 18.0417 2.39167 18.825 3.175C19.6083 3.95833 20 4.9 20 6C20 7.1 19.6083 8.04167 18.825 8.825C18.0417 9.60833 17.1 10 16 10Z" fill="#006E20"/>
</svg>
